<svg width="60" height="56" viewBox="0 0 60 56" fill="none" xmlns="http://www.w3.org/2000/svg">
<path d="M59 14V0H1V14H0V51.26C0 53.87 2.13 56 4.74 56H55.26C57.87 56 60 53.87 60 51.26V14H59ZM56.5 14L51.32 7.09L56.41 2H57V14H56.5ZM11 14V7C11 6.98 10.99 6.95 10.99 6.93C10.99 6.87 10.97 6.81 10.95 6.74C10.94 6.7 10.94 6.65 10.92 6.61C10.91 6.59 10.89 6.57 10.88 6.55C10.85 6.49 10.82 6.45 10.78 6.4C10.75 6.36 10.74 6.32 10.7 6.29L6.41 2H53.58L49.29 6.29C49.26 6.32 49.24 6.37 49.21 6.4C49.17 6.45 49.13 6.5 49.11 6.55C49.1 6.57 49.08 6.59 49.07 6.61C49.05 6.65 49.05 6.69 49.04 6.74C49.02 6.8 49.01 6.86 49 6.93C49.01 6.95 49 6.98 49 7V14H11ZM6 14L9 10V14H6ZM51 10L54 14H51V10ZM3 2H3.59L8.68 7.09L3.5 14H3V2ZM58 51.26C58 52.77 56.77 54 55.26 54H4.74C3.23 54 2 52.77 2 51.26V16H58V51.26Z" fill="black"/>
<path d="M42 22C41.45 22 41 22.45 41 23V29C41 35.07 36.07 40 30 40C23.93 40 19 35.07 19 29V23C19 22.45 18.55 22 18 22C17.45 22 17 22.45 17 23V29C17 36.17 22.83 42 30 42C37.17 42 43 36.17 43 29V23C43 22.45 42.55 22 42 22Z" fill="black"/>
<path d="M20 23C20 23.55 20.45 24 21 24C21.55 24 22 23.55 22 23C22 20.79 20.21 19 18 19C15.79 19 14 20.79 14 23C14 23.55 14.45 24 15 24C15.55 24 16 23.55 16 23C16 21.9 16.9 21 18 21C19.1 21 20 21.9 20 23Z" fill="black"/>
<path d="M42 19C39.79 19 38 20.79 38 23C38 23.55 38.45 24 39 24C39.55 24 40 23.55 40 23C40 21.9 40.9 21 42 21C43.1 21 44 21.9 44 23C44 23.55 44.45 24 45 24C45.55 24 46 23.55 46 23C46 20.79 44.21 19 42 19Z" fill="black"/>
</svg>
