<svg width="78" height="59" viewBox="0 0 78 59" fill="none" xmlns="http://www.w3.org/2000/svg">
<path d="M26.935 48.9361C27.0251 49.0316 27.1332 49.1085 27.2531 49.1623C27.3729 49.2161 27.5022 49.2457 27.6335 49.2495C27.7648 49.2533 27.8956 49.2313 28.0184 49.1845C28.1411 49.1378 28.2535 49.0673 28.349 48.9771C32.482 45.0771 36.105 43.2851 39.439 43.5161C42.533 43.7251 45.533 45.6831 48.612 49.4981C48.7786 49.7046 49.0203 49.8364 49.2841 49.8646C49.5478 49.8929 49.812 49.8151 50.0185 49.6486C50.225 49.482 50.3568 49.2403 50.385 48.9765C50.4133 48.7127 50.3356 48.4486 50.169 48.2421C46.721 43.9691 43.255 41.7691 39.575 41.5201C35.663 41.2511 31.538 43.2201 26.975 47.5201C26.8792 47.6103 26.8022 47.7186 26.7483 47.8386C26.6944 47.9587 26.6648 48.0882 26.661 48.2198C26.6573 48.3513 26.6796 48.4823 26.7266 48.6052C26.7736 48.7282 26.8444 48.8406 26.935 48.9361Z" fill="black"/>
<path d="M68.6061 10.771C68.8311 10.771 69.0571 10.771 69.2841 10.761C69.5491 10.7531 69.8003 10.6403 69.9822 10.4473C70.1641 10.2544 70.2619 9.99705 70.2541 9.73197C70.2516 9.60027 70.2229 9.47037 70.1696 9.34991C70.1163 9.22946 70.0395 9.12086 69.9436 9.0305C69.8478 8.94014 69.7348 8.86985 69.6114 8.82373C69.4881 8.77762 69.3567 8.75662 69.2251 8.76197C63.1831 8.94597 58.1471 6.42597 53.8981 1.06997C53.8165 0.967082 53.7154 0.881275 53.6006 0.81745C53.4858 0.753624 53.3596 0.713032 53.2291 0.697988C53.0987 0.682945 52.9665 0.693747 52.8402 0.729776C52.7139 0.765806 52.596 0.826358 52.4931 0.907974C52.3902 0.989591 52.3044 1.09067 52.2405 1.20545C52.1767 1.32023 52.1361 1.44646 52.1211 1.57692C52.106 1.70739 52.1168 1.83954 52.1529 1.96583C52.1889 2.09212 52.2495 2.21008 52.3311 2.31297C56.8411 7.99997 62.1711 10.771 68.6061 10.771Z" fill="black"/>
<path d="M8.37509 10.76C8.67509 10.773 8.97509 10.779 9.26709 10.779C15.4251 10.779 20.6891 8.00597 25.3321 2.32297C25.4152 2.22126 25.4775 2.10417 25.5154 1.97839C25.5533 1.85262 25.566 1.72061 25.5528 1.58991C25.5397 1.45921 25.501 1.33238 25.4388 1.21666C25.3766 1.10094 25.2923 0.998594 25.1906 0.915467C25.0889 0.83234 24.9718 0.770059 24.846 0.732182C24.7202 0.694305 24.5882 0.681575 24.4575 0.694714C24.3268 0.707854 24.2 0.746607 24.0843 0.808762C23.9686 0.870918 23.8662 0.955257 23.7831 1.05697C19.2831 6.56597 14.4081 9.01797 8.46009 8.75697C8.19623 8.75027 7.94008 8.84633 7.74568 9.02487C7.55128 9.20342 7.43382 9.45049 7.41809 9.71397C7.41192 9.84556 7.4318 9.97708 7.47661 10.101C7.52142 10.2249 7.59027 10.3387 7.67919 10.4359C7.76812 10.5331 7.87538 10.6117 7.99481 10.6674C8.11423 10.723 8.24347 10.7544 8.37509 10.76Z" fill="black"/>
<path d="M74.4631 4.71008C74.4111 4.58946 74.3358 4.48026 74.2416 4.38873C74.1474 4.29719 74.0361 4.2251 73.914 4.17658C73.792 4.12807 73.6615 4.10406 73.5302 4.10595C73.3989 4.10784 73.2692 4.13557 73.1486 4.18758C73.0279 4.23958 72.9187 4.31483 72.8272 4.40903C72.7357 4.50324 72.6636 4.61455 72.6151 4.73661C72.5665 4.85867 72.5425 4.9891 72.5444 5.12044C72.5463 5.25178 72.5741 5.38146 72.6261 5.50208C75.8202 12.9154 76.4743 21.1767 74.4866 29.0003C72.4989 36.8239 67.9809 43.7711 61.6356 48.7608C55.2902 53.7505 47.4735 56.5029 39.4018 56.5895C31.3301 56.6762 23.4561 54.0924 17.0051 49.2401C18.6685 48.715 20.0692 47.5757 20.9221 46.0541C25.1681 38.3431 14.7151 21.6811 14.2691 20.9761C14.1804 20.836 14.0583 20.7202 13.9138 20.639C13.7693 20.5579 13.6068 20.5139 13.4411 20.5111C13.2747 20.5042 13.1093 20.5409 12.9615 20.6175C12.8136 20.6942 12.6883 20.8081 12.5981 20.9481C9.71901 25.2536 7.33335 29.8693 5.48606 34.7081C3.45372 30.0662 2.40306 25.0543 2.40006 19.9871C2.38435 14.4005 3.66023 8.886 6.12807 3.87408C6.2439 3.63618 6.26074 3.36208 6.17488 3.1118C6.08902 2.86151 5.90747 2.65546 5.66999 2.53877C5.43251 2.42209 5.15847 2.40427 4.90788 2.48924C4.6573 2.5742 4.4506 2.75502 4.33307 2.99208C1.72897 8.27974 0.382904 14.098 0.400064 19.9921C0.404337 26.0954 1.85208 32.1111 4.62506 37.5481C3.80706 40.7711 3.65106 43.8481 4.85506 46.1291C6.16906 48.6161 8.84006 49.8791 12.7921 49.8821H12.8001C13.3559 49.8807 13.9114 49.8504 14.4641 49.7911C21.1493 55.2907 29.4887 58.3842 38.1433 58.5751C46.7978 58.7659 55.2655 56.0429 62.1866 50.8433C69.1077 45.6437 74.0808 38.2691 76.3073 29.9037C78.5339 21.5382 77.8847 12.6673 74.4641 4.71508L74.4631 4.71008ZM12.7901 47.8771C9.59007 47.8771 7.57407 46.9961 6.62007 45.1901C3.95807 40.1541 9.97806 28.7651 13.3931 23.3831C16.5351 28.7391 21.9631 40.0201 19.1701 45.0901C18.1371 46.9651 16.0541 47.8781 12.8031 47.8781L12.7901 47.8771Z" fill="black"/>
<path d="M21.8999 19.6939C21.8999 22.8719 23.9519 25.4579 26.4749 25.4579C28.9979 25.4579 31.0499 22.8729 31.0499 19.6939C31.0499 16.5149 28.9999 13.9299 26.4769 13.9299C23.9539 13.9299 21.8999 16.5149 21.8999 19.6939ZM26.4749 15.6309C28.0599 15.6309 29.3499 17.4539 29.3499 19.6939C29.3499 21.8939 28.0339 23.7569 26.4749 23.7569C24.8899 23.7569 23.5999 21.9339 23.5999 19.6939C23.5999 17.4539 24.8919 15.6299 26.4769 15.6299L26.4749 15.6309Z" fill="black"/>
<path d="M52.243 25.457C54.766 25.457 56.818 22.872 56.818 19.693C56.818 16.514 54.766 13.929 52.243 13.929C49.72 13.929 47.668 16.514 47.668 19.693C47.668 22.872 49.721 25.457 52.243 25.457ZM52.243 15.63C53.828 15.63 55.118 17.453 55.118 19.693C55.118 21.893 53.802 23.756 52.243 23.756C50.658 23.756 49.368 21.933 49.368 19.693C49.368 17.453 50.658 15.63 52.243 15.63Z" fill="black"/>
</svg>
